<svg id="Ebene_1" data-name="Ebene 1" xmlns="http://www.w3.org/2000/svg" viewBox="0 0 276.06 350.14"><defs><style>.cls-1{stroke:#000;stroke-miterlimit:10;stroke-width:0.25px;}</style></defs><title>logo</title><path class="cls-1" d="M342.37,275.56h2.74v0.5h-8.5v-0.5h2.66V220.69h-2.66v-0.5h16.66V235h-0.58q0-8.71-.94-11.52t-4.32-2.81h-5.07V245c1.15,0,4.86-.51,5.46-1.55s0.9-3.06.9-6.08h0.57v15.77h-0.57q0-4.54-.83-6.08c-0.55-1-4.22-1.55-5.32-1.55Z" transform="translate(-283.23 -123.84)"/><path class="cls-1" d="M380.85,275.56a4.06,4.06,0,0,0,4.28-2.84q1-2.84,1-11.48h0.58v14.83H370v-0.5h2.66V220.69H370v-0.5h8.5v0.5h-2.74v54.86h5.07Z" transform="translate(-283.23 -123.84)"/><path class="cls-1" d="M410,275.56V250.07l-7.8-29.38h-2.66v-0.5H408v0.5h-2.62l7.32,26.92,7.23-26.91h-2.72v-0.5h6.55v0.5H421l-7.88,29.38v25.49h2.66v0.5h-8.5v-0.5H410Z" transform="translate(-283.23 -123.84)"/><path class="cls-1" d="M299.6,285.74v54.86h2.74v0.5h-8.5v-0.5h2.66V285.74h-2.66v-0.5h8.5v0.5H299.6Z" transform="translate(-283.23 -123.84)"/><path class="cls-1" d="M330.7,340.61a4.06,4.06,0,0,0,4.28-2.84q1-2.84,1-11.48h0.58v14.83H319.87v-0.5h2.66V285.74h-2.66v-0.5h8.5v0.5h-2.74v54.86h5.07Z" transform="translate(-283.23 -123.84)"/><path class="cls-1" d="M363.26,340.61a4.06,4.06,0,0,0,4.28-2.84q1-2.84,1-11.48h0.58v14.83H352.44v-0.5h2.66V285.74h-2.66v-0.5h8.5v0.5H358.2v54.86h5.07Z" transform="translate(-283.23 -123.84)"/><path d="M451.72,337.52c-2.55,2.47-6.85,4.22-12.35,4.22s-9.72-1.59-12.27-4.14c-2.79-2.79-3.74-6.77-3.74-12.59h11.31c0,2.31.16,4,1.2,5.18a4.5,4.5,0,0,0,3.51,1.36,4.1,4.1,0,0,0,3.59-1.44c0.8-1,1.12-2.47,1.12-4.78,0-5.42-.88-6.37-4.94-8L432,314.33c-5.74-2.39-8.13-5.42-8.13-14.26,0-5.26,1.67-9.64,5.1-12.59a15.49,15.49,0,0,1,10.44-3.59c5,0,8.69,1.28,11.16,3.59,3.11,2.87,4.38,7.41,4.38,13.15H443.59c0-2,0-3.83-1-5.1a3.66,3.66,0,0,0-3.27-1.43,3.8,3.8,0,0,0-3.27,1.51,6.4,6.4,0,0,0-1,4.06c0,3.59.64,4.62,3.9,6l7.09,2.87c7.17,2.87,9.24,6.14,9.24,16.41C455.39,330.67,454.67,334.66,451.72,337.52Z" transform="translate(-283.23 -123.84)"/><path d="M464.15,341.11V284.38h11.32v56.73H464.15Z" transform="translate(-283.23 -123.84)"/><path d="M513.32,336.09c-2.63,3.11-6.14,5.66-12.51,5.66s-9.72-2.55-12.35-5.66c-4.54-5.42-4.22-15.7-4.22-23.35s-0.32-17.93,4.22-23.35c2.63-3.11,6-5.66,12.35-5.66s9.88,2.55,12.51,5.66c4.54,5.42,4.22,15.7,4.22,23.35S517.86,330.67,513.32,336.09Zm-8.61-39.92a4,4,0,0,0-3.9-2.23,3.78,3.78,0,0,0-3.75,2.23c-1.35,2.63-1.51,9.72-1.51,16.57s0.16,13.94,1.51,16.57a3.78,3.78,0,0,0,3.75,2.23,4,4,0,0,0,3.9-2.23c1.35-2.63,1.51-9.72,1.51-16.57S506.06,298.8,504.71,296.17Z" transform="translate(-283.23 -123.84)"/><path d="M549.65,341.11l-12-27.73v27.73H526.3V284.38h9.88L548,312.1V284.38h11.32v56.73h-9.64Z" transform="translate(-283.23 -123.84)"/><path d="M517.73,276.7c-6.37,0-9.72-2.55-12.35-5.66-4.54-5.42-4.22-15.7-4.22-23.35s-0.32-17.93,4.22-23.35c2.63-3.11,6-5.66,12.35-5.66A15.6,15.6,0,0,1,529,222.91c3,3,4.62,7.49,4.86,12.67H522.51c-0.08-2.39-.48-6.69-4.78-6.69a3.78,3.78,0,0,0-3.75,2.23c-1.35,2.63-1.51,9.72-1.51,16.57s0.16,13.95,1.51,16.57a3.78,3.78,0,0,0,3.75,2.23c3.75,0,4.78-3.51,4.78-6.61V254h-4.7v-9.16h16v14.42C533.83,270.56,527.45,276.7,517.73,276.7Z" transform="translate(-283.23 -123.84)"/><path d="M436.88,185.24v24.08h4.92V185.24h-4.92Zm-81.72,8a6.93,6.93,0,0,0-7-6.85h-8.42v22.91H345V190.64h2.22a2.78,2.78,0,0,1,2.89,2.73,2.87,2.87,0,0,1-3,2.73h-1.32v5.67l4.87,7.52h6.16l-6.67-9.5A6.84,6.84,0,0,0,355.16,193.22Zm74.2,16.1h4.92V185.24h-4.92v24.08Zm-21.1-12.55a6.15,6.15,0,0,0,1.84-4.31,6.05,6.05,0,0,0-1.68-4.19c-1.06-1.17-2.92-1.74-5.69-1.74h-7.9v22.71l10.13,0a7,7,0,0,0,7.08-6.67C412,199.79,410.93,198.08,408.26,196.76Zm-4.13,8.17h-4.06V190.8h2.77a2.16,2.16,0,0,1,0,4.32h-1.78v4.49h3.08A2.66,2.66,0,0,1,404.13,204.94Zm-40.73-10.6a7.75,7.75,0,1,0,7,11.73l0.12-.21L366.47,204l-0.1.21a2.84,2.84,0,0,1-2.61,1.58,2.71,2.71,0,0,1-2.82-2.51h9.86l0.05-1.17a7.67,7.67,0,0,0-2-5.66A7.52,7.52,0,0,0,363.4,194.34Zm-2.5,8.72a0.14,0.14,0,0,0,0,0h0v0h0Zm0.06-2.83a2.48,2.48,0,0,1,5,0h-5Zm22.29-15s0,10,0,10.91a6.57,6.57,0,0,0-4.29-1.65c-3.82,0-6.93,3.4-6.93,7.57s3.11,7.57,6.93,7.57a6.54,6.54,0,0,0,4.31-1.7v1.3h4.91v-24h-4.94Zm-3,20.12a3.4,3.4,0,1,1,3.07-3.38A3.24,3.24,0,0,1,380.26,205.4Zm46.8-10.29-4.62,0,0,8.27a2.35,2.35,0,0,1-4.7,0l0-8.31h-4.92v9.17c0,3.15,3.24,5.71,7.22,5.71s7.22-2.56,7.22-5.71v-9.17h-0.21Z" transform="translate(-283.23 -123.84)"/><path d="M536.46,123.84l-38.83,53.69a16.27,16.27,0,0,1,3.23,1.51l39.92-55.19h-4.32Z" transform="translate(-283.23 -123.84)"/><path d="M482.75,247.06L471.24,220l6.64-9.18a16.07,16.07,0,0,1-2.52-2.49l-30.92,42.75V220.69h2.74v-0.5h-8.5v0.5h2.66v34.66l-52.86,73.09v-42.7h2.38v-0.5h-8.14v0.5h2.66v47L283.23,474h4.32l99.38-137.41c0.14,0.16.27,0.32,0.42,0.47a17.14,17.14,0,0,0,23.59,0,15.61,15.61,0,0,0,4.22-11.16V297.54L441,261.8v14.26h11.31v-29.9L461.08,234v42h11.32V248.33l12,27.73h9.64V219.33H482.75v27.73Zm-78.92,79.39c0,3.66-2.15,5.1-4.7,5.1s-4.7-1.44-4.7-5.1v-0.26l9.4-13v13.26Z" transform="translate(-283.23 -123.84)"/><path d="M451.36,205.14a2.92,2.92,0,0,0,1-1.17,0.93,0.93,0,0,0-.34-0.39,0.35,0.35,0,0,0-.32,0,7.25,7.25,0,0,1-1,.71,0.65,0.65,0,0,0-.12.47,0.61,0.61,0,0,0,.27.34A0.77,0.77,0,0,0,451.36,205.14Z" transform="translate(-283.23 -123.84)"/><path d="M533.18,206.68a2.84,2.84,0,0,0-.2-1.1,0.77,0.77,0,0,0-.61-0.3,0.84,0.84,0,0,0-.46.68,10.35,10.35,0,0,1,.39,1.43c0.06,0.1,0,.3.16,0.3l0.93-.3A0.89,0.89,0,0,0,533.18,206.68Z" transform="translate(-283.23 -123.84)"/><path d="M449.84,205.18a1,1,0,0,0-.54.59A1.76,1.76,0,0,1,449,207a0.27,0.27,0,0,0,0,.28,4.84,4.84,0,0,0,1,.27c0.18-.56.3-1.19,0.51-1.68v-0.14A1.28,1.28,0,0,0,449.84,205.18Z" transform="translate(-283.23 -123.84)"/><path d="M530.84,203.66c-0.28-.24-0.59.12-0.73,0.33a3.41,3.41,0,0,0,.61,1,0.68,0.68,0,0,0,.5.31,0.82,0.82,0,0,0,.51-0.22,0.57,0.57,0,0,0,.17-0.48A5.79,5.79,0,0,0,530.84,203.66Z" transform="translate(-283.23 -123.84)"/><path d="M471.78,203.65a6.74,6.74,0,0,0,.61,1.06,1.47,1.47,0,0,0,1.16-.36c0.19-.16-0.09-0.36-0.12-0.55-0.18-.28-0.06-0.82-0.52-0.84a8.84,8.84,0,0,1-1.39.09l-0.13.08A1,1,0,0,0,471.78,203.65Z" transform="translate(-283.23 -123.84)"/><path d="M529.68,204.71c-0.36-.42-1.07-0.67-1.06-1.29a9.76,9.76,0,0,1-.27-1,0.9,0.9,0,0,0-.55-0.69c-0.62-.1-1.37.07-1.76-0.51s0-.94.11-1.36a4.13,4.13,0,0,0,.1-1.79,3.86,3.86,0,0,1-.17-0.9c0.14-.28.5-0.07,0.71,0a3.91,3.91,0,0,0,2.5-.2,3,3,0,0,0,1.78-2.69,5.92,5.92,0,0,0-2.4-3.75,1.62,1.62,0,0,1-.56-0.67c0-.59.64-0.3,1-0.45a3.34,3.34,0,0,0,1.13-.43,2.5,2.5,0,0,0,.9-2.65c0-.09,0-0.22-0.16-0.22a4.19,4.19,0,0,1-.52.44c-0.56.33-1.32,0.27-1.92,0.56a3.39,3.39,0,0,0-2,1.6,1.84,1.84,0,0,0,.21,1.2c0.9,1.42,2.79,2.34,3.09,4.05a1.57,1.57,0,0,1-.77,1.59,3.06,3.06,0,0,1-2.83-.11c-1.56-.78-2.92-2.08-4.6-2.62-1.06-.48-2.36-0.36-3.3-1.1a7.86,7.86,0,0,0-2.15-1.27,10.55,10.55,0,0,1-1.68-.44,8,8,0,0,0-1.68-1.2,11.51,11.51,0,0,0-2.69-.84,4.33,4.33,0,0,1-1.2-1,3.71,3.71,0,0,0-2.66-1,1.71,1.71,0,0,0-1,.5,16.85,16.85,0,0,0-27.84-.15,3.52,3.52,0,0,0-2.23.14,15.2,15.2,0,0,1-2.19,1.21c-1.13.51-2.4,0.61-3.37,1.47-0.56.49-1,1.26-1.88,1.13a3.64,3.64,0,0,0-2.49.88,4.73,4.73,0,0,1-2.07,1.42c-0.72.3-1.6,0.16-2.34,0.43a9.94,9.94,0,0,0-3.1,1.93,6,6,0,0,1-3.2,1.17,2.15,2.15,0,0,1-1.85-1.4,2.35,2.35,0,0,1,.74-2.43c0.73-.88,1.91-1.4,2.49-2.42a1.86,1.86,0,0,0-.14-1.91c-0.77-.79-1.87-0.82-2.87-1.07a8.28,8.28,0,0,1-1.69-1A1.64,1.64,0,0,0,451,187a2.62,2.62,0,0,0,1.67,2.06,8.36,8.36,0,0,0,1.61.17,0.49,0.49,0,0,1,.3.37,0.57,0.57,0,0,1-.17.39,16.43,16.43,0,0,0-2.34,2.17,3.22,3.22,0,0,0-.43,3.14,3.36,3.36,0,0,0,2.72,2,6.16,6.16,0,0,0,2.32-.25,0.26,0.26,0,0,1,.19.16,16.14,16.14,0,0,0,.12,1.87,10.62,10.62,0,0,0,.52,1.5,0.64,0.64,0,0,1-.13.53,6.15,6.15,0,0,1-1.31.74l-1.13.07-0.22.1a5.84,5.84,0,0,0-.69,1.55,4,4,0,0,1-1.52,1.18,3.4,3.4,0,0,1-.61.78,1.09,1.09,0,0,1-.66.25,3.26,3.26,0,0,0-.58,1.67,3.12,3.12,0,0,0,1.92.06,4.75,4.75,0,0,0,1.05-1.29,1.18,1.18,0,0,1,1.18,0,3.5,3.5,0,0,0,1.44-.56c0.34-.22.61-0.59,1-0.81a4,4,0,0,1,2.29,0,2.42,2.42,0,0,0,1.61-.16,4.72,4.72,0,0,1,1.37-.74,2.2,2.2,0,0,0,.85-1.16,2.79,2.79,0,0,0,.49-1.14,0.67,0.67,0,0,0-.41-0.3c-0.22.3-.38,0.62-0.62,0.91-1,1.3-2.46,1.56-4,1.56a5,5,0,0,0-4.08,1.65,0.19,0.19,0,0,1-.23,0,0.56,0.56,0,0,1,.17-0.4c1-1.37,2.47-1.69,4.07-1.72a6.24,6.24,0,0,0,2.43-.58,4.1,4.1,0,0,0,1.73-2.07c0.19-.91.26-1.9,0.49-2.77a0.16,0.16,0,0,1,.2-0.1,0.2,0.2,0,0,1,.19.17,5.28,5.28,0,0,0,.08,2.82c0.7,0.91,1.94.29,2.88,0.25a17.52,17.52,0,0,1,2.78.33,2.24,2.24,0,0,0,1.36-.16,0.71,0.71,0,0,0,0-.52,0.9,0.9,0,0,1,0-.84,0.21,0.21,0,0,1,.26,0,3.75,3.75,0,0,0,.42,1.07,5.53,5.53,0,0,0,1.77,1.39,2.39,2.39,0,0,1,1.16,1.75,1.07,1.07,0,0,1-.64.81,3,3,0,0,1-1.6.39c-0.77-.37-1-1.19-1.48-1.78a1.2,1.2,0,0,0-1-.32,5.54,5.54,0,0,0-1.22.19,0.38,0.38,0,0,0-.12.34c0.26,0.48.55,0.94,0.84,1.42,0.33,0.2.79-.12,1.08,0.25a4,4,0,0,0,.78,1.11,1.34,1.34,0,0,0,1.39.26,17.35,17.35,0,0,0,3.14-1.22H476a1.72,1.72,0,0,0,1.14-.32l0.1-.15a16.81,16.81,0,0,0,28.21.15l0,0.06a1.51,1.51,0,0,0,1,.11c0.35,0.09.48,0.51,0.83,0.61,0.78,0.26,1.62.41,2.4,0.71a1.39,1.39,0,0,0,1.35,0,1.66,1.66,0,0,0,.72-1.32,1.2,1.2,0,0,1,.71-0.2,4.8,4.8,0,0,0,.9-1.2l0.05-.2a0.43,0.43,0,0,0-.27-0.25h-1.48c-0.68.09-.74,0.84-1,1.31a0.82,0.82,0,0,1-.81.38,2.37,2.37,0,0,1-1.86-1,0.56,0.56,0,0,1,.1-0.55,9.1,9.1,0,0,1,1.25-1.24,2.54,2.54,0,0,0,1.59-1.17,2.12,2.12,0,0,1,.44-0.79,0.25,0.25,0,0,1,.25.09,1.87,1.87,0,0,1-.25,1.17c1.58,0.16,2.89-.46,4.43-0.41,0.65,0,1.24.13,1.88,0.09a1.56,1.56,0,0,0,1.54-1,5.35,5.35,0,0,0-.08-2.63l0.08-.13a0.23,0.23,0,0,1,.26.07,13.16,13.16,0,0,1,.58,2.53,5.2,5.2,0,0,0,.84,2,3.12,3.12,0,0,0,3.32,1.26,4.34,4.34,0,0,1,3.86,1.74v0.07a0.16,0.16,0,0,1-.15.12,5.77,5.77,0,0,0-2.71-1.44c-1.12-.2-2.1.33-3.14-0.08a4.66,4.66,0,0,1-2.48-2.59h-0.12a0.21,0.21,0,0,0-.16.19l0.15,0.89a2.46,2.46,0,0,0,1.18,1.91,2.56,2.56,0,0,0,2,.68,4.6,4.6,0,0,1,3.66.83,7.08,7.08,0,0,0,1,.66,1.21,1.21,0,0,0,1.19-.19c0.74-.24.91,0.68,1.42,1a2.59,2.59,0,0,0,1.82.26l0.1-.08a5.31,5.31,0,0,0-.47-1.57C530.48,206,530.12,205.17,529.68,204.71Zm-23.9-15c0.1,0.24.19,0.49,0.28,0.73a7.68,7.68,0,0,0-1.36,1.47,4,4,0,0,0-.4.71,0.08,0.08,0,0,1-.1,0,1.86,1.86,0,0,1,.12-1A4.8,4.8,0,0,1,505.78,189.75Zm-27.83,3.79a0.09,0.09,0,0,1-.12,0,9.6,9.6,0,0,0-.48-1.76,1.2,1.2,0,0,1-.36-1,0.36,0.36,0,0,1,.36-0.06,1.88,1.88,0,0,1,.51.63A3.5,3.5,0,0,1,477.95,193.54Zm29.71,7.61-0.88,1.3a2.71,2.71,0,0,0-.48.93,3.4,3.4,0,0,0,0,1.05c-0.06,0-.09-0.06-0.15-0.09a2,2,0,0,1-.25-1.65L507,201l0-.13a3.12,3.12,0,0,0-.78-0.32,0.82,0.82,0,0,0-.3.3l-1.09,2a1.11,1.11,0,0,0-.09.66c0,0.14.06,0.28,0.1,0.41a15.67,15.67,0,0,1-27.05.11l0.06-.11a1.48,1.48,0,0,0,0-1.2,6.89,6.89,0,0,1-1-2,2.2,2.2,0,0,0-.73-0.2,0.61,0.61,0,0,0-.39.17l1.14,2.25a1.18,1.18,0,0,1,.11.65,2.89,2.89,0,0,1-.79,1.29c-0.07,0-.16.09-0.22,0a5.24,5.24,0,0,0,.33-1.59l-1.12-2a1.89,1.89,0,0,1-.35-0.84,0.38,0.38,0,0,1,.25-0.31,3.15,3.15,0,0,0,1.46-.52,5.89,5.89,0,0,0,.91-2.43,0.17,0.17,0,0,1,.13-0.14c0.09,0,.1.07,0.14,0.11a3.74,3.74,0,0,1-.64,2.79,0.25,0.25,0,0,0,0,.31,2.1,2.1,0,0,0,1.59-.25,8.82,8.82,0,0,0,1.68-.22,0.2,0.2,0,0,1,.12.14,2.81,2.81,0,0,0-.67,1.37,2.72,2.72,0,0,0-1.1,1.49c0.07,0.32.35,0,.53,0a0.18,0.18,0,0,1,.15.18l-0.44.63a2,2,0,0,0,0,1.17,0.78,0.78,0,0,0,.76.44,6.3,6.3,0,0,0,1.81-.48,3.94,3.94,0,0,1,2.13-.14,3,3,0,0,0,1.7-.94,1,1,0,0,1,.71.39,3.71,3.71,0,0,0,2.93,1.17l0.1-.06a0.17,0.17,0,0,0,0-.26l-0.68-.35a2.76,2.76,0,0,1-1.23-1.24,6.17,6.17,0,0,0-.69-1.46c-0.1-.23-0.33-0.42-0.43-0.65a0.11,0.11,0,0,1,.1-0.06,3.1,3.1,0,0,1,1.54,1.66A2.48,2.48,0,0,0,490.2,204l0.09-.07a0.15,0.15,0,0,0,0-.17l-0.52-.26a6.43,6.43,0,0,1-1.75-2.21c-0.19-.28-0.52-0.45-0.7-0.72a20,20,0,0,1-1.32-5.33,5.52,5.52,0,0,0-.49-1.42,31.15,31.15,0,0,0-2.78-3.6,1,1,0,0,1-.28-0.28L479,187.13a3.79,3.79,0,0,0-.48-0.3,15.82,15.82,0,0,1,1.67-2,15.72,15.72,0,0,1,24.19,2.4c-2,1.61-4.2,2.88-6,4.84-1.36,1.4-1.72,3.18-2.23,4.9-0.72,2.61-1,5.47-3.65,7.07a0.2,0.2,0,0,0,0,.26,1.93,1.93,0,0,0,1.84-.58,13.12,13.12,0,0,1,1.53-2l0.15-.08a0.13,0.13,0,0,1,.13.16c-0.18.58-.7,1-0.87,1.57a4.49,4.49,0,0,1-1.46,1.72v0.09a0.18,0.18,0,0,0,.14.16c1.27,0.06,2.19-.85,3-1.71a0.31,0.31,0,0,1,.32,0,3.27,3.27,0,0,0,1.21.82,7.43,7.43,0,0,1,1.62-.1c0.77,0.23,1.5.55,2.27,0.81a1.25,1.25,0,0,0,.88-0.71,3.25,3.25,0,0,0,0-1.11,2.09,2.09,0,0,1,.61,0,0.34,0.34,0,0,0,.15-0.26c-0.14-.66-0.74-1.16-0.92-1.78-0.29-.8-1.23-1.27-1.41-2.13,0-.06.12-0.15,0.19-0.09a4.79,4.79,0,0,0,1.94,1.16,10.33,10.33,0,0,0,1.75.07,0.19,0.19,0,0,0,.13-0.23,9.45,9.45,0,0,1-.62-1.61,4.79,4.79,0,0,1-.11-2.47,0.21,0.21,0,0,1,.2-0.13,0.32,0.32,0,0,1,.21.26,5.82,5.82,0,0,0,.88,3.33,6.35,6.35,0,0,0,1.26,1A0.85,0.85,0,0,1,507.66,201.15Zm-24.25,1c0.12,0,.28,0,0.3.14a0.83,0.83,0,0,1-.2.78,2.53,2.53,0,0,1-.88.1c-0.07,0-.17-0.07-0.14-0.16A1.37,1.37,0,0,1,483.42,202.13Zm-0.24-5c0.24-.25.18-1,0.74-0.74a3.36,3.36,0,0,1,.72.88,2.05,2.05,0,0,1,.64,1.87,0.52,0.52,0,0,1-.24.41,0.12,0.12,0,0,1-.16-0.12,2.1,2.1,0,0,0-.26-1.11,1.64,1.64,0,0,0-1-.75,1.63,1.63,0,0,0-.68.65,0.07,0.07,0,0,1-.09,0A1.53,1.53,0,0,1,483.17,197.14Zm16.61,0.71a1.3,1.3,0,0,0-.65.34,2.39,2.39,0,0,0-1,1.18,1,1,0,0,1-.2.55,0.17,0.17,0,0,1-.22-0.14,2.07,2.07,0,0,1,.65-1.75,10.4,10.4,0,0,0,1.2-1.37,0.44,0.44,0,0,1,.46.27,4.31,4.31,0,0,1,.61,1.08,0.41,0.41,0,0,1,0,.26,0.18,0.18,0,0,1-.24.1C500.09,198.27,500.14,197.82,499.78,197.85Zm0.57,5.28a1,1,0,0,1-.69,0,0.87,0.87,0,0,1-.35-0.73,0.23,0.23,0,0,1,.09-0.2,1,1,0,0,1,.8.32A0.69,0.69,0,0,1,500.34,203.13Z" transform="translate(-283.23 -123.84)"/><path d="M509,203.26a1.39,1.39,0,0,0-.29.93,0.79,0.79,0,0,0,.71.49,0.68,0.68,0,0,0,.74-0.14,5.77,5.77,0,0,0,.34-1.18,0.21,0.21,0,0,0-.27-0.13C509.89,203.29,509.44,203.2,509,203.26Z" transform="translate(-283.23 -123.84)"/></svg>